<?xml version="1.0" encoding="utf-8"?>
<!-- Generator: Adobe Illustrator 16.0.0, SVG Export Plug-In . SVG Version: 6.00 Build 0)  -->
<!DOCTYPE svg PUBLIC "-//W3C//DTD SVG 1.1//EN" "http://www.w3.org/Graphics/SVG/1.1/DTD/svg11.dtd">
<svg version="1.1" id="Layer_1" xmlns="http://www.w3.org/2000/svg" xmlns:xlink="http://www.w3.org/1999/xlink" x="0px" y="0px"
	 width="595.279px" height="841.89px" viewBox="0 0 595.279 841.89" enable-background="new 0 0 595.279 841.89"
	 xml:space="preserve">
<g>
	<g>
		<path fill="#098FC7" d="M155.92,244.523c0-1.683,1.008-2.881,2.773-2.881h46.874c32.76,0,51.411,23.279,51.411,43.204
			c0,14.398-0.251,36.479-25.705,43.917v0.48c15.876,5.522,26.462,21.602,26.462,40.323c0,12.236-0.254,52.08-52.421,52.08h-46.872
			c-1.765,0-2.522-1.203-2.522-2.635V244.523z M201.03,309.324c0,0.958,0.755,1.677,1.766,1.677c3.526,0,7.308-2.157,7.308-6.959
			v-20.638c0-4.318-4.286-6.241-7.308-6.241c-1.011,0-1.766,0.479-1.766,1.437V309.324z M201.03,383.964
			c0,0.964,0.504,1.682,1.766,1.682c4.033,0,7.559-2.881,7.559-6.958v-25.202c0-4.079-3.78-6.481-7.812-6.481
			c-1.009,0-1.513,0.72-1.513,1.917V383.964z"/>
	</g>
</g>
<g>
	<g>
		<path fill="#54A80C" d="M268.729,243.682c0-1.275,1.171-2.37,2.576-2.37h39.633c1.643,0,2.816,0.73,3.286,2.188l14.07,40.977
			c0.47,1.46,1.172,2.185,1.642,2.185c0.705,0,1.408-0.724,1.408-2.367v-40.612c0-1.275,1.174-2.37,2.812-2.37h35.179
			c1.876,0,3.051,1.278,3.051,2.552v131.68c0,1.273-0.938,2.362-2.581,2.362h-43.856c-0.939,0-2.346-0.724-2.58-1.819
			l-10.318-32.782c-0.469-1.825-1.406-2.551-2.111-2.551c-0.702,0-1.172,0.726-1.172,2.551v32.24c0,1.273-1.408,2.362-3.05,2.362
			h-35.644c-1.408,0-2.344-1.089-2.344-2.543V243.682z"/>
	</g>
	<g>
		<path fill="#54A80C" d="M381.76,243.682c0-1.092,1.408-2.37,3.051-2.37h83.253c1.404,0,2.343,0.913,2.343,2.005v32.78
			c0,1.095-1.173,1.826-2.576,1.826h-39.168c-0.935,0-1.643,0.547-1.643,1.271v10.199c0,0.73,0.942,1.278,1.643,1.278h18.528
			c0.938,0,1.644,0.548,1.644,1.278v33.147c0,0.907-0.939,1.638-1.878,1.638h-18.994c-0.942,0-1.643,0.547-1.643,1.455v10.746
			c0,0.725,0.7,1.272,1.408,1.272h40.569c1.643,0,2.581,0.913,2.581,1.82v33.877c0,1.095-1.174,2.002-2.581,2.002h-83.956
			c-1.406,0-2.581-1.089-2.581-2.362V243.682z"/>
	</g>
	<g>
		<path fill="#54A80C" d="M511.914,377.906c-1.643,0-3.281-1.089-3.281-2.543v-95.073c0-1.272-1.407-2.185-3.053-2.185h-23.451
			c-1.406,0-3.045-1.46-3.045-2.556v-32.414c0-1.093,0.7-1.823,2.108-1.823h100.372c1.644,0,3.052,0.73,3.052,2.188v32.049
			c0,1.461-1.408,2.556-3.285,2.556h-23.449c-1.642,0-2.816,0.913-2.816,2.55v94.89c0,1.273-1.407,2.362-3.283,2.362H511.914z"/>
	</g>
</g>
<g>
	<g>
		<path fill="#E98D09" d="M292.277,399.73c0,7.89-2.778,11.324-5.401,11.324c-2.936,0-5.2-4.227-5.2-10.964
			c0-7.136,2.375-11.322,5.378-11.322C290.167,388.768,292.277,393.216,292.277,399.73z M283.67,399.953
			c0,4.672,1.366,8.192,3.294,8.192c1.882,0,3.294-3.474,3.294-8.283c0-3.611-0.918-8.186-3.249-8.186
			C284.678,391.676,283.67,395.903,283.67,399.953z"/>
	</g>
	<g>
		<path fill="#E98D09" d="M294.765,395.019c0-2.202-0.021-4.009-0.088-5.767h1.724l0.09,3.434h0.067
			c0.604-2.025,1.612-3.917,3.406-3.917c1.479,0,2.601,1.762,3.069,4.271h0.046c0.337-1.191,0.761-2.115,1.212-2.777
			c0.648-0.97,1.364-1.495,2.398-1.495c1.434,0,3.559,1.853,3.559,9.246v12.556h-1.923v-12.064c0-4.102-0.763-6.566-2.354-6.566
			c-1.12,0-1.997,1.625-2.333,3.525c-0.09,0.525-0.156,1.226-0.156,1.934v13.172h-1.925v-12.772c0-3.394-0.764-5.858-2.265-5.858
			c-1.233,0-2.131,1.934-2.445,3.873c-0.111,0.577-0.155,1.232-0.155,1.9v12.857h-1.929V395.019z"/>
	</g>
	<g>
		<path fill="#E98D09" d="M313.462,396.211c0-2.733-0.046-4.929-0.092-6.959h1.772l0.092,3.656h0.046
			c0.806-2.6,2.081-4.14,3.852-4.14c2.619,0,4.595,4.357,4.595,10.832c0,7.667-2.379,11.455-4.93,11.455
			c-1.436,0-2.688-1.232-3.342-3.349h-0.045v11.585h-1.948V396.211z M315.41,401.893c0,0.57,0.045,1.101,0.091,1.586
			c0.358,2.687,1.545,4.541,2.959,4.541c2.083,0,3.291-3.349,3.291-8.244c0-4.272-1.14-7.928-3.226-7.928
			c-1.342,0-2.6,1.893-2.979,4.802c-0.068,0.485-0.137,1.062-0.137,1.586V401.893z"/>
	</g>
	<g>
		<path fill="#E98D09" d="M335.292,404.756c0,2.208,0.023,4.142,0.092,5.813h-1.747l-0.114-3.479h-0.046
			c-0.515,1.717-1.656,3.964-3.586,3.964c-1.704,0-3.739-1.848-3.739-9.338v-12.464h1.967v11.802c0,4.05,0.633,6.789,2.425,6.789
			c1.321,0,2.241-1.808,2.598-3.525c0.114-0.576,0.18-1.278,0.18-1.985v-13.08h1.972V404.756z"/>
	</g>
	<g>
		<path fill="#E98D09" d="M340.946,383.125v6.126h2.821v2.949h-2.821v11.5c0,2.642,0.377,4.142,1.475,4.142
			c0.515,0,0.897-0.137,1.146-0.262l0.092,2.903c-0.385,0.308-0.988,0.531-1.751,0.531c-0.916,0-1.659-0.571-2.129-1.638
			c-0.56-1.141-0.761-3.034-0.761-5.544V392.2h-1.683v-2.949h1.683v-5.11L340.946,383.125z"/>
	</g>
	<g>
		<path fill="#E98D09" d="M346.954,400.615c0.043,5.242,1.747,7.405,3.716,7.405c1.413,0,2.267-0.485,3.004-1.101l0.34,2.772
			c-0.699,0.616-1.885,1.324-3.611,1.324c-3.337,0-5.331-4.324-5.331-10.753c0-6.429,1.926-11.493,5.083-11.493
			c3.543,0,4.483,6.125,4.483,10.039c0,0.793-0.046,1.415-0.066,1.809H346.954z M352.736,397.836
			c0.019-2.464-0.515-6.297-2.738-6.297c-1.993,0-2.867,3.616-3.022,6.297H352.736z"/>
	</g>
	<g>
		<path fill="#E98D09" d="M357.081,395.903c0-2.51-0.019-4.666-0.087-6.651h1.724l0.071,4.181h0.089
			c0.492-2.858,1.679-4.665,3.001-4.665c0.225,0,0.384,0.044,0.561,0.131v3.655c-0.202-0.085-0.404-0.131-0.671-0.131
			c-1.389,0-2.377,2.071-2.647,4.974c-0.046,0.531-0.087,1.147-0.087,1.809v11.363h-1.953V395.903z"/>
	</g>
</g>
<g>
	<g>
		<path fill="#E98D09" d="M280.32,409.337c-0.717,0.702-2.15,1.409-3.989,1.409c-4.259,0-7.462-5.289-7.462-15.025
			c0-9.287,3.203-15.59,7.887-15.59c1.884,0,3.072,0.793,3.587,1.323l-0.472,3.12c-0.739-0.695-1.792-1.226-3.048-1.226
			c-3.541,0-5.893,4.443-5.893,12.241c0,7.268,2.129,11.939,5.802,11.939c1.188,0,2.399-0.485,3.183-1.238L280.32,409.337z"/>
	</g>
</g>
<g>
	<g>
		<path fill="#E98D09" d="M489.235,400.182c0.046,5.242,1.749,7.403,3.721,7.403c1.412,0,2.262-0.485,3.004-1.106l0.337,2.777
			c-0.694,0.616-1.884,1.323-3.607,1.323c-3.342,0-5.339-4.318-5.339-10.746c0-6.435,1.931-11.5,5.09-11.5
			c3.54,0,4.481,6.121,4.481,10.04c0,0.799-0.041,1.415-0.068,1.809H489.235z M495.019,397.409c0.022-2.47-0.518-6.304-2.734-6.304
			c-1.994,0-2.867,3.611-3.024,6.304H495.019z"/>
	</g>
	<g>
		<path fill="#E98D09" d="M499.368,395.47c0-2.51-0.025-4.672-0.091-6.652h1.729L501.07,393h0.092
			c0.492-2.864,1.681-4.667,3.004-4.667c0.222,0,0.378,0.04,0.561,0.131v3.657c-0.202-0.085-0.404-0.131-0.677-0.131
			c-1.39,0-2.373,2.071-2.643,4.974c-0.043,0.537-0.089,1.147-0.089,1.809v11.368h-1.949V395.47z"/>
	</g>
	<g>
		<path fill="#E98D09" d="M508.017,388.818l2.131,11.979c0.36,1.94,0.653,3.703,0.874,5.464h0.068
			c0.249-1.761,0.561-3.524,0.919-5.464l2.109-11.979h2.059l-4.256,21.323h-1.883l-4.123-21.323H508.017z"/>
	</g>
	<g>
		<path fill="#E98D09" d="M520.238,382.829c0.022,1.323-0.472,2.374-1.255,2.374c-0.697,0-1.189-1.05-1.189-2.374
			c0-1.368,0.516-2.424,1.232-2.424C519.766,380.405,520.238,381.46,520.238,382.829z M518.041,410.141v-21.323h1.971v21.323
			H518.041z"/>
	</g>
	<g>
		<path fill="#E98D09" d="M531.017,409.342c-0.515,0.531-1.658,1.238-3.113,1.238c-3.273,0-5.402-4.363-5.402-10.883
			c0-6.56,2.285-11.324,5.828-11.324c1.163,0,2.195,0.576,2.733,1.107l-0.449,2.995c-0.469-0.531-1.209-1.009-2.284-1.009
			c-2.487,0-3.833,3.611-3.833,8.054c0,4.935,1.614,7.974,3.764,7.974c1.122,0,1.862-0.57,2.423-1.055L531.017,409.342z"/>
	</g>
	<g>
		<path fill="#E98D09" d="M534.292,400.182c0.042,5.242,1.746,7.403,3.722,7.403c1.411,0,2.265-0.485,3.001-1.106l0.336,2.777
			c-0.694,0.616-1.88,1.323-3.609,1.323c-3.335,0-5.33-4.318-5.33-10.746c0-6.435,1.923-11.5,5.084-11.5
			c3.546,0,4.484,6.121,4.484,10.04c0,0.799-0.046,1.415-0.068,1.809H534.292z M540.073,397.409c0.022-2.47-0.515-6.304-2.733-6.304
			c-1.994,0-2.867,3.611-3.024,6.304H540.073z"/>
	</g>
	<g>
		<path fill="#E98D09" d="M544.156,406.171c0.58,0.752,1.616,1.54,2.601,1.54c1.433,0,2.104-1.404,2.104-3.167
			c0-1.848-0.559-2.862-2.017-3.924c-1.951-1.363-2.869-3.479-2.869-6.035c0-3.434,1.412-6.252,3.743-6.252
			c1.098,0,2.063,0.616,2.669,1.324l-0.496,2.818c-0.424-0.531-1.212-1.232-2.216-1.232c-1.166,0-1.818,1.317-1.818,2.909
			c0,1.757,0.652,2.55,2.065,3.611c1.882,1.409,2.844,3.257,2.844,6.423c0,3.747-1.481,6.394-4.055,6.394
			c-1.187,0-2.285-0.576-3.048-1.455L544.156,406.171z"/>
	</g>
</g>
<g>
	<g>
		<path fill="#E98D09" d="M475.653,405.794c0.873,1.055,2.151,1.94,3.493,1.94c1.995,0,3.16-2.071,3.16-5.066
			c0-2.772-0.809-4.364-2.847-5.898c-2.464-1.717-3.988-4.233-3.988-8.414c0-4.631,1.951-8.065,4.886-8.065
			c1.545,0,2.668,0.708,3.338,1.455l-0.534,3.126c-0.495-0.526-1.505-1.409-2.872-1.409c-2.061,0-2.843,2.423-2.843,4.448
			c0,2.778,0.918,4.142,3.001,5.728c2.558,1.939,3.854,4.364,3.854,8.722c0,4.581-1.727,8.544-5.287,8.544
			c-1.458,0-3.048-0.837-3.856-1.894L475.653,405.794z"/>
	</g>
</g>
<g>
	<g>
		<path fill="#E98D09" d="M403.614,404.59c0,2.202,0.022,4.141,0.087,5.813h-1.745l-0.112-3.479h-0.045
			c-0.514,1.717-1.656,3.96-3.585,3.96c-1.705,0-3.743-1.85-3.743-9.333v-12.47h1.971v11.809c0,4.05,0.628,6.776,2.421,6.776
			c1.324,0,2.242-1.797,2.601-3.515c0.113-0.575,0.179-1.283,0.179-1.984v-13.086h1.973V404.59z"/>
	</g>
	<g>
		<path fill="#E98D09" d="M406.887,396.04c0-2.727-0.045-4.935-0.087-6.959h1.77l0.09,3.663h0.046
			c0.807-2.602,2.083-4.147,3.853-4.147c2.62,0,4.595,4.364,4.595,10.838c0,7.666-2.376,11.449-4.928,11.449
			c-1.437,0-2.69-1.228-3.343-3.344h-0.046v11.586h-1.949V396.04z M408.836,401.728c0,0.57,0.046,1.101,0.092,1.585
			c0.358,2.682,1.545,4.535,2.958,4.535c2.086,0,3.292-3.347,3.292-8.236c0-4.273-1.141-7.93-3.227-7.93
			c-1.341,0-2.596,1.894-2.978,4.803c-0.065,0.479-0.138,1.056-0.138,1.586V401.728z"/>
	</g>
	<g>
		<path fill="#E98D09" d="M419.643,396.04c0-2.727-0.046-4.935-0.089-6.959h1.77l0.092,3.663h0.046
			c0.801-2.602,2.085-4.147,3.852-4.147c2.623,0,4.595,4.364,4.595,10.838c0,7.666-2.376,11.449-4.931,11.449
			c-1.431,0-2.689-1.228-3.34-3.344h-0.042v11.586h-1.952V396.04z M421.595,401.728c0,0.57,0.042,1.101,0.086,1.585
			c0.36,2.682,1.55,4.535,2.96,4.535c2.087,0,3.295-3.347,3.295-8.236c0-4.273-1.145-7.93-3.229-7.93
			c-1.343,0-2.597,1.894-2.979,4.803c-0.063,0.479-0.132,1.056-0.132,1.586V401.728z"/>
	</g>
	<g>
		<path fill="#E98D09" d="M442.212,399.565c0,7.884-2.777,11.318-5.4,11.318c-2.936,0-5.198-4.227-5.198-10.964
			c0-7.136,2.374-11.323,5.379-11.323C440.107,388.596,442.212,393.051,442.212,399.565z M433.609,399.788
			c0,4.666,1.368,8.19,3.292,8.19c1.882,0,3.297-3.479,3.297-8.282c0-3.611-0.918-8.192-3.251-8.192
			C434.619,391.505,433.609,395.738,433.609,399.788z"/>
	</g>
	<g>
		<path fill="#E98D09" d="M444.704,395.738c0-2.516-0.023-4.678-0.087-6.657h1.723l0.069,4.187h0.09
			c0.493-2.864,1.679-4.672,3.002-4.672c0.225,0,0.382,0.045,0.561,0.137v3.657c-0.205-0.091-0.403-0.137-0.675-0.137
			c-1.388,0-2.375,2.071-2.643,4.98c-0.046,0.531-0.088,1.146-0.088,1.808v11.362h-1.952V395.738z"/>
	</g>
	<g>
		<path fill="#E98D09" d="M454.946,382.959v6.121h2.825v2.955h-2.825v11.495c0,2.646,0.383,4.135,1.481,4.135
			c0.514,0,0.897-0.126,1.144-0.262l0.086,2.908c-0.378,0.308-0.982,0.531-1.744,0.531c-0.921,0-1.656-0.57-2.129-1.632
			c-0.56-1.141-0.763-3.035-0.763-5.544v-11.63h-1.679v-2.955h1.679v-5.11L454.946,382.959z"/>
	</g>
</g>
<g>
	<g>
		<path fill="#E98D09" d="M382.445,406.074c0.87,1.055,2.15,1.934,3.497,1.934c1.993,0,3.157-2.065,3.157-5.06
			c0-2.778-0.805-4.364-2.845-5.904c-2.464-1.717-3.988-4.227-3.988-8.413c0-4.626,1.949-8.066,4.884-8.066
			c1.546,0,2.666,0.708,3.341,1.455l-0.541,3.132c-0.492-0.53-1.499-1.409-2.868-1.409c-2.06,0-2.844,2.424-2.844,4.443
			c0,2.778,0.918,4.142,3.001,5.732c2.555,1.935,3.854,4.358,3.854,8.716c0,4.581-1.724,8.545-5.288,8.545
			c-1.452,0-3.046-0.833-3.852-1.894L382.445,406.074z"/>
	</g>
</g>
<g>
	<path fill="#098FC7" d="M41.864,421.646H9.345l64.063-178.563h34.125l64.061,178.563h-19.099L97.18,266.037L41.864,421.646z
		 M9.35,421.646c0,0,74.867-144.138,230.565-87.823c0,0-94.372-12.66-144.166,31.933c0,0-23.187,12.661-53.885,55.891"/>
</g>
</svg>
