<?xml version="1.0" encoding="utf-8"?>
<!-- Generator: Adobe Illustrator 16.0.0, SVG Export Plug-In . SVG Version: 6.00 Build 0)  -->
<!DOCTYPE svg PUBLIC "-//W3C//DTD SVG 1.1//EN" "http://www.w3.org/Graphics/SVG/1.1/DTD/svg11.dtd">
<svg version="1.1" id="Layer_1" xmlns="http://www.w3.org/2000/svg" xmlns:xlink="http://www.w3.org/1999/xlink" x="0px" y="0px"
	 width="595.279px" height="841.89px" viewBox="0 0 595.279 841.89" enable-background="new 0 0 595.279 841.89"
	 xml:space="preserve">
<g>
	<g>
		<path fill="#098FC7" d="M142.115,296.355c0-1.526,0.915-2.611,2.514-2.611h42.49c29.696,0,46.604,21.102,46.604,39.164
			c0,13.052-0.228,33.068-23.301,39.81v0.435c14.391,5.006,23.987,19.582,23.987,36.552c0,11.091-0.23,47.209-47.519,47.209h-42.489
			c-1.602,0-2.287-1.09-2.287-2.389V296.355L142.115,296.355z M183.007,355.097c0,0.869,0.685,1.52,1.601,1.52
			c3.197,0,6.626-1.956,6.626-6.308v-18.708c0-3.914-3.885-5.657-6.626-5.657c-0.916,0-1.601,0.434-1.601,1.303V355.097z
			 M183.007,422.756c0,0.874,0.457,1.525,1.601,1.525c3.656,0,6.854-2.612,6.854-6.308v-22.845c0-3.697-3.427-5.875-7.083-5.875
			c-0.914,0-1.371,0.653-1.371,1.738V422.756L183.007,422.756z"/>
	</g>
</g>
<g>
	<g>
		<path fill="#54A80C" d="M244.375,295.593c0-1.156,1.062-2.148,2.335-2.148h35.927c1.489,0,2.553,0.662,2.979,1.983l12.755,37.145
			c0.426,1.323,1.063,1.981,1.488,1.981c0.639,0,1.276-0.657,1.276-2.146v-36.814c0-1.156,1.063-2.148,2.548-2.148h31.892
			c1.7,0,2.765,1.158,2.765,2.313v119.366c0,1.154-0.851,2.141-2.339,2.141h-39.755c-0.85,0-2.126-0.656-2.339-1.649l-9.352-29.716
			c-0.425-1.654-1.274-2.313-1.914-2.313c-0.637,0-1.063,0.658-1.063,2.313v29.225c0,1.154-1.276,2.141-2.765,2.141h-32.312
			c-1.276,0-2.125-0.987-2.125-2.305L244.375,295.593L244.375,295.593z"/>
	</g>
	<g>
		<path fill="#54A80C" d="M346.837,295.593c0-0.99,1.276-2.148,2.766-2.148h75.467c1.273,0,2.124,0.828,2.124,1.817v29.715
			c0,0.992-1.063,1.655-2.335,1.655h-35.505c-0.848,0-1.489,0.496-1.489,1.152v9.246c0,0.662,0.854,1.158,1.489,1.158h16.795
			c0.851,0,1.492,0.497,1.492,1.159v30.047c0,0.822-0.852,1.484-1.704,1.484h-17.217c-0.854,0-1.49,0.496-1.49,1.319v9.741
			c0,0.657,0.635,1.153,1.276,1.153h36.775c1.489,0,2.339,0.828,2.339,1.649v30.709c0,0.992-1.064,1.815-2.339,1.815h-76.104
			c-1.275,0-2.34-0.988-2.34-2.142V295.593L346.837,295.593z"/>
	</g>
	<g>
		<path fill="#54A80C" d="M464.818,417.266c-1.488,0-2.973-0.988-2.973-2.306v-86.182c0-1.153-1.275-1.98-2.769-1.98H437.82
			c-1.274,0-2.76-1.324-2.76-2.317v-29.383c0-0.991,0.633-1.652,1.909-1.652h90.986c1.489,0,2.766,0.662,2.766,1.983v29.052
			c0,1.324-1.276,2.317-2.978,2.317h-21.255c-1.489,0-2.553,0.828-2.553,2.312v86.016c0,1.154-1.275,2.141-2.977,2.141
			L464.818,417.266L464.818,417.266z"/>
	</g>
</g>
<g>
	<g>
		<path fill="#E98D09" d="M265.721,437.048c0,7.152-2.519,10.264-4.896,10.264c-2.661,0-4.714-3.831-4.714-9.938
			c0-6.469,2.153-10.263,4.877-10.263C263.808,427.112,265.721,431.143,265.721,437.048z M257.919,437.25
			c0,4.235,1.238,7.425,2.986,7.425c1.708,0,2.986-3.149,2.986-7.507c0-3.273-0.832-7.422-2.943-7.422
			C258.833,429.748,257.919,433.579,257.919,437.25z"/>
	</g>
	<g>
		<path fill="#E98D09" d="M267.977,432.778c0-1.996-0.02-3.634-0.08-5.228h1.563l0.082,3.112h0.061
			c0.547-1.835,1.459-3.55,3.086-3.55c1.341,0,2.359,1.597,2.782,3.871h0.042c0.305-1.079,0.689-1.917,1.099-2.518
			c0.588-0.879,1.237-1.354,2.174-1.354c1.299,0,3.226,1.68,3.226,8.381v11.383h-1.743V435.94c0-3.719-0.691-5.952-2.133-5.952
			c-1.015,0-1.81,1.473-2.115,3.195c-0.083,0.476-0.142,1.111-0.142,1.754v11.94h-1.745v-11.578c0-3.076-0.694-5.31-2.055-5.31
			c-1.116,0-1.931,1.753-2.215,3.511c-0.101,0.522-0.141,1.116-0.141,1.722v11.655h-1.748V432.78h0.002V432.778z"/>
	</g>
	<g>
		<path fill="#E98D09" d="M284.927,433.858c0-2.477-0.042-4.468-0.085-6.308h1.606l0.083,3.314h0.042
			c0.732-2.357,1.887-3.753,3.493-3.753c2.374,0,4.165,3.949,4.165,9.818c0,6.95-2.156,10.384-4.469,10.384
			c-1.303,0-2.437-1.115-3.031-3.035h-0.041v10.501h-1.764V433.858L284.927,433.858z M286.691,439.008c0,0.518,0.041,1,0.084,1.438
			c0.323,2.437,1.401,4.116,2.683,4.116c1.888,0,2.983-3.036,2.983-7.472c0-3.873-1.035-7.187-2.925-7.187
			c-1.216,0-2.357,1.716-2.7,4.353c-0.062,0.439-0.125,0.963-0.125,1.438L286.691,439.008L286.691,439.008z"/>
	</g>
	<g>
		<path fill="#E98D09" d="M304.714,441.604c0,2.002,0.021,3.756,0.085,5.27h-1.584l-0.104-3.153h-0.042
			c-0.466,1.556-1.501,3.593-3.25,3.593c-1.545,0-3.39-1.675-3.39-8.465V427.55h1.782v10.698c0,3.671,0.576,6.154,2.2,6.154
			c1.196,0,2.03-1.639,2.354-3.194c0.104-0.522,0.163-1.159,0.163-1.8v-11.856h1.788v14.053L304.714,441.604L304.714,441.604z"/>
	</g>
	<g>
		<path fill="#E98D09" d="M309.839,421.997v5.553h2.558v2.673h-2.558v10.425c0,2.395,0.342,3.755,1.339,3.755
			c0.467,0,0.812-0.124,1.038-0.237l0.083,2.632c-0.349,0.278-0.894,0.479-1.587,0.479c-0.83,0-1.503-0.516-1.93-1.484
			c-0.508-1.034-0.689-2.751-0.689-5.025v-10.544h-1.525v-2.673h1.525v-4.632L309.839,421.997z"/>
	</g>
	<g>
		<path fill="#E98D09" d="M315.285,437.851c0.039,4.752,1.584,6.711,3.37,6.711c1.279,0,2.055-0.438,2.723-0.998l0.309,2.514
			c-0.634,0.557-1.709,1.198-3.273,1.198c-3.025,0-4.833-3.918-4.833-9.747c0-5.828,1.746-10.418,4.607-10.418
			c3.212,0,4.064,5.552,4.064,9.1c0,0.719-0.042,1.282-0.061,1.642L315.285,437.851L315.285,437.851L315.285,437.851z
			 M320.526,435.332c0.019-2.233-0.466-5.708-2.482-5.708c-1.805,0-2.597,3.277-2.737,5.708H320.526z"/>
	</g>
	<g>
		<path fill="#E98D09" d="M324.465,433.579c0-2.274-0.017-4.229-0.078-6.028h1.563l0.063,3.79h0.082
			c0.444-2.591,1.521-4.229,2.721-4.229c0.203,0,0.348,0.039,0.508,0.118v3.313c-0.184-0.077-0.366-0.119-0.608-0.119
			c-1.259,0-2.154,1.878-2.399,4.511c-0.042,0.479-0.079,1.038-0.079,1.64v10.3h-1.771L324.465,433.579L324.465,433.579z"/>
	</g>
</g>
<g>
	<g>
		<path fill="#E98D09" d="M254.883,445.757c-0.65,0.636-1.95,1.277-3.616,1.277c-3.861,0-6.764-4.795-6.764-13.62
			c0-8.419,2.903-14.133,7.149-14.133c1.709,0,2.785,0.719,3.251,1.2l-0.427,2.829c-0.67-0.631-1.625-1.111-2.763-1.111
			c-3.209,0-5.341,4.027-5.341,11.096c0,6.59,1.93,10.823,5.259,10.823c1.076,0,2.173-0.44,2.885-1.123L254.883,445.757z"/>
	</g>
</g>
<g>
	<g>
		<path fill="#E98D09" d="M444.26,437.458c0.042,4.752,1.586,6.711,3.373,6.711c1.28,0,2.052-0.439,2.725-1.001l0.306,2.516
			c-0.63,0.559-1.71,1.2-3.271,1.2c-3.029,0-4.84-3.915-4.84-9.741c0-5.834,1.751-10.425,4.614-10.425
			c3.209,0,4.063,5.549,4.063,9.101c0,0.725-0.037,1.283-0.063,1.64H444.26L444.26,437.458z M449.504,434.945
			c0.021-2.239-0.469-5.715-2.479-5.715c-1.807,0-2.598,3.273-2.739,5.715H449.504z"/>
	</g>
	<g>
		<path fill="#E98D09" d="M453.446,433.187c0-2.275-0.021-4.235-0.082-6.03h1.567l0.058,3.791h0.083
			c0.446-2.597,1.525-4.23,2.725-4.23c0.201,0,0.343,0.036,0.509,0.118v3.315c-0.184-0.077-0.367-0.118-0.614-0.118
			c-1.261,0-2.15,1.877-2.396,4.508c-0.039,0.487-0.081,1.04-0.081,1.642v10.304h-1.767L453.446,433.187L453.446,433.187z"/>
	</g>
	<g>
		<path fill="#E98D09" d="M461.287,427.157l1.931,10.858c0.327,1.759,0.593,3.357,0.793,4.953h0.062
			c0.226-1.596,0.509-3.193,0.833-4.953l1.91-10.858h1.868l-3.857,19.329h-1.709l-3.737-19.329H461.287z"/>
	</g>
	<g>
		<path fill="#E98D09" d="M472.364,421.728c0.021,1.199-0.428,2.152-1.138,2.152c-0.632,0-1.078-0.952-1.078-2.152
			c0-1.24,0.47-2.198,1.117-2.198C471.936,419.53,472.364,420.487,472.364,421.728z M470.374,446.486v-19.329h1.787v19.329H470.374z
			"/>
	</g>
	<g>
		<path fill="#E98D09" d="M482.135,445.761c-0.467,0.481-1.503,1.122-2.822,1.122c-2.965,0-4.896-3.955-4.896-9.864
			c0-5.947,2.07-10.266,5.282-10.266c1.054,0,1.989,0.522,2.478,1.003l-0.407,2.716c-0.425-0.481-1.097-0.915-2.07-0.915
			c-2.254,0-3.475,3.273-3.475,7.301c0,4.475,1.463,7.229,3.413,7.229c1.017,0,1.688-0.518,2.196-0.956L482.135,445.761z"/>
	</g>
	<g>
		<path fill="#E98D09" d="M485.104,437.458c0.039,4.752,1.582,6.711,3.375,6.711c1.279,0,2.053-0.439,2.721-1.001l0.304,2.516
			c-0.629,0.559-1.704,1.2-3.271,1.2c-3.023,0-4.832-3.915-4.832-9.741c0-5.834,1.744-10.425,4.609-10.425
			c3.215,0,4.064,5.549,4.064,9.101c0,0.725-0.041,1.283-0.062,1.64H485.104L485.104,437.458z M490.344,434.945
			c0.021-2.239-0.467-5.715-2.477-5.715c-1.808,0-2.599,3.273-2.741,5.715H490.344z"/>
	</g>
	<g>
		<path fill="#E98D09" d="M494.046,442.887c0.525,0.682,1.465,1.396,2.359,1.396c1.299,0,1.906-1.272,1.906-2.871
			c0-1.675-0.506-2.594-1.828-3.557c-1.769-1.235-2.601-3.154-2.601-5.471c0-3.113,1.28-5.667,3.394-5.667
			c0.995,0,1.869,0.559,2.419,1.2l-0.449,2.555c-0.385-0.481-1.099-1.117-2.009-1.117c-1.058,0-1.648,1.194-1.648,2.637
			c0,1.593,0.591,2.312,1.872,3.273c1.706,1.277,2.578,2.952,2.578,5.822c0,3.396-1.343,5.797-3.676,5.797
			c-1.077,0-2.071-0.521-2.765-1.318L494.046,442.887z"/>
	</g>
</g>
<g>
	<g>
		<path fill="#E98D09" d="M431.949,442.545c0.791,0.956,1.95,1.759,3.166,1.759c1.809,0,2.865-1.878,2.865-4.593
			c0-2.512-0.735-3.956-2.581-5.347c-2.235-1.557-3.615-3.837-3.615-7.627c0-4.197,1.769-7.311,4.429-7.311
			c1.4,0,2.419,0.642,3.026,1.319l-0.484,2.833c-0.447-0.477-1.364-1.277-2.604-1.277c-1.868,0-2.577,2.196-2.577,4.032
			c0,2.519,0.832,3.755,2.721,5.192c2.32,1.758,3.494,3.956,3.494,7.906c0,4.153-1.567,7.745-4.793,7.745
			c-1.321,0-2.763-0.759-3.496-1.718L431.949,442.545z"/>
	</g>
</g>
<g>
	<g>
		<path fill="#E98D09" d="M366.646,441.454c0,1.996,0.021,3.755,0.079,5.27h-1.582l-0.1-3.153h-0.041
			c-0.468,1.556-1.502,3.589-3.25,3.589c-1.546,0-3.393-1.677-3.393-8.46v-11.304h1.786v10.704c0,3.672,0.569,6.143,2.194,6.143
			c1.2,0,2.032-1.628,2.359-3.186c0.101-0.521,0.162-1.163,0.162-1.799v-11.862h1.788v14.059H366.646L366.646,441.454z"/>
	</g>
	<g>
		<path fill="#E98D09" d="M369.614,433.704c0-2.473-0.041-4.474-0.079-6.309h1.604l0.081,3.32h0.042
			c0.732-2.358,1.888-3.759,3.494-3.759c2.375,0,4.165,3.956,4.165,9.823c0,6.949-2.154,10.378-4.468,10.378
			c-1.304,0-2.438-1.112-3.029-3.03h-0.042v10.502h-1.767L369.614,433.704L369.614,433.704z M371.382,438.859
			c0,0.518,0.042,1,0.083,1.437c0.323,2.433,1.4,4.111,2.682,4.111c1.891,0,2.984-3.033,2.984-7.464
			c0-3.874-1.036-7.189-2.927-7.189c-1.216,0-2.354,1.718-2.699,4.354c-0.06,0.434-0.125,0.957-0.125,1.438L371.382,438.859
			L371.382,438.859z"/>
	</g>
	<g>
		<path fill="#E98D09" d="M381.177,433.704c0-2.473-0.041-4.474-0.08-6.309h1.604l0.084,3.32h0.043
			c0.726-2.358,1.89-3.759,3.491-3.759c2.378,0,4.165,3.956,4.165,9.823c0,6.949-2.153,10.378-4.47,10.378
			c-1.297,0-2.438-1.112-3.027-3.03h-0.038v10.502h-1.77L381.177,433.704L381.177,433.704z M382.946,438.859
			c0,0.518,0.038,1,0.078,1.437c0.325,2.433,1.405,4.111,2.684,4.111c1.892,0,2.986-3.033,2.986-7.464
			c0-3.874-1.037-7.189-2.928-7.189c-1.217,0-2.354,1.718-2.699,4.354c-0.058,0.434-0.12,0.957-0.12,1.438L382.946,438.859
			L382.946,438.859z"/>
	</g>
	<g>
		<path fill="#E98D09" d="M401.636,436.899c0,7.146-2.518,10.259-4.896,10.259c-2.661,0-4.712-3.832-4.712-9.939
			c0-6.468,2.151-10.264,4.876-10.264C399.727,426.956,401.636,430.994,401.636,436.899z M393.837,437.101
			c0,4.229,1.24,7.423,2.984,7.423c1.705,0,2.988-3.153,2.988-7.506c0-3.274-0.832-7.427-2.947-7.427
			C394.752,429.592,393.837,433.429,393.837,437.101z"/>
	</g>
	<g>
		<path fill="#E98D09" d="M403.893,433.429c0-2.28-0.02-4.24-0.078-6.034h1.563l0.061,3.796h0.082
			c0.446-2.597,1.523-4.235,2.723-4.235c0.203,0,0.346,0.041,0.508,0.124v3.315c-0.186-0.083-0.365-0.125-0.611-0.125
			c-1.26,0-2.153,1.878-2.397,4.515c-0.041,0.48-0.08,1.039-0.08,1.639v10.3h-1.77V433.429L403.893,433.429z"/>
	</g>
	<g>
		<path fill="#E98D09" d="M413.178,421.845v5.549h2.561v2.679h-2.561v10.421c0,2.397,0.347,3.748,1.343,3.748
			c0.466,0,0.812-0.114,1.036-0.237l0.078,2.634c-0.343,0.281-0.889,0.481-1.581,0.481c-0.835,0-1.499-0.515-1.93-1.479
			c-0.507-1.034-0.691-2.752-0.691-5.025v-10.543h-1.521v-2.679h1.521v-4.632L413.178,421.845z"/>
	</g>
</g>
<g>
	<g>
		<path fill="#E98D09" d="M347.457,442.799c0.789,0.956,1.949,1.753,3.17,1.753c1.808,0,2.862-1.871,2.862-4.587
			c0-2.519-0.729-3.956-2.578-5.352c-2.235-1.557-3.616-3.832-3.616-7.627c0-4.193,1.768-7.312,4.428-7.312
			c1.401,0,2.416,0.642,3.028,1.319l-0.49,2.839c-0.444-0.48-1.359-1.277-2.599-1.277c-1.868,0-2.579,2.197-2.579,4.027
			c0,2.519,0.832,3.755,2.72,5.196c2.317,1.754,3.494,3.951,3.494,7.9c0,4.153-1.564,7.746-4.793,7.746
			c-1.316,0-2.762-0.755-3.493-1.717L347.457,442.799z"/>
	</g>
</g>
<g>
	<path fill="#098FC7" d="M38.726,456.915H9.248L67.32,295.05h30.934l58.071,161.864h-17.314L88.869,315.858L38.726,456.915z
		 M9.253,456.915c0,0,67.864-130.659,209.002-79.61c0,0-85.547-11.476-130.684,28.947c0,0-21.019,11.477-48.846,50.665"/>
</g>
<g>
	<path fill="#A3A3A3" d="M32.911,627.57H8.304l59.252-162.787h21.625l59.254,162.787h-13.194L84.074,486.055L32.911,627.57z
		 M8.304,627.57c0,0,28.705-62.877,108.49-90.406c79.786-27.529,201.726-30.309,257.501-32.69
		c80.577-3.439,148.503,16.714,148.503,16.714s-131.419-16.274-282.16,13.396c-74.464,14.657-135.813,17.361-207.728,92.987H8.304z"
		/>
</g>
<g>
	<g>
		<path fill="#A3A3A3" d="M139.844,467.202c0-1.526,0.916-2.612,2.514-2.612h42.491c29.696,0,46.604,21.103,46.604,39.165
			c0,13.051-0.227,33.067-23.301,39.81V544c14.391,5.005,23.987,19.581,23.987,36.552c0,11.092-0.23,47.209-47.519,47.209h-42.489
			c-1.601,0-2.287-1.09-2.287-2.388V467.202L139.844,467.202z M180.738,525.942c0,0.869,0.684,1.521,1.601,1.521
			c3.196,0,6.626-1.955,6.626-6.309v-18.709c0-3.912-3.885-5.656-6.626-5.656c-0.917,0-1.601,0.436-1.601,1.303V525.942z
			 M180.738,593.605c0,0.872,0.457,1.524,1.601,1.524c3.656,0,6.854-2.612,6.854-6.309v-22.845c0-3.696-3.427-5.874-7.083-5.874
			c-0.915,0-1.371,0.653-1.371,1.736V593.605L180.738,593.605z"/>
	</g>
</g>
<g>
	<g>
		<path fill="#098FC7" d="M236.791,467.711c0-1.154,1.062-2.147,2.335-2.147h35.926c1.49,0,2.553,0.66,2.979,1.982l12.754,37.146
			c0.426,1.322,1.063,1.979,1.488,1.979c0.639,0,1.276-0.655,1.276-2.146v-36.813c0-1.156,1.064-2.149,2.549-2.149h31.89
			c1.7,0,2.766,1.158,2.766,2.314v119.365c0,1.154-0.851,2.143-2.34,2.143h-39.754c-0.851,0-2.127-0.657-2.339-1.65l-9.353-29.716
			c-0.425-1.653-1.275-2.312-1.914-2.312c-0.636,0-1.062,0.658-1.062,2.312v29.226c0,1.152-1.276,2.141-2.765,2.141h-32.312
			c-1.276,0-2.125-0.988-2.125-2.305L236.791,467.711L236.791,467.711z"/>
	</g>
	<g>
		<path fill="#098FC7" d="M339.252,467.711c0-0.991,1.276-2.147,2.766-2.147h75.468c1.272,0,2.124,0.826,2.124,1.816v29.714
			c0,0.993-1.063,1.655-2.335,1.655h-35.505c-0.849,0-1.49,0.496-1.49,1.152v9.246c0,0.66,0.854,1.157,1.49,1.157h16.794
			c0.852,0,1.492,0.496,1.492,1.158v30.047c0,0.823-0.852,1.485-1.703,1.485h-17.218c-0.854,0-1.491,0.495-1.491,1.318v9.741
			c0,0.657,0.635,1.153,1.276,1.153h36.775c1.489,0,2.34,0.828,2.34,1.649v30.709c0,0.993-1.064,1.815-2.34,1.815h-76.104
			c-1.274,0-2.34-0.988-2.34-2.141L339.252,467.711L339.252,467.711z"/>
	</g>
	<g>
		<path fill="#098FC7" d="M457.235,589.383c-1.49,0-2.974-0.987-2.974-2.305v-86.182c0-1.152-1.276-1.981-2.769-1.981h-21.257
			c-1.275,0-2.761-1.324-2.761-2.319v-29.383c0-0.989,0.634-1.649,1.91-1.649h90.985c1.491,0,2.768,0.66,2.768,1.982v29.052
			c0,1.324-1.276,2.317-2.979,2.317h-21.255c-1.489,0-2.554,0.829-2.554,2.313v86.016c0,1.154-1.274,2.142-2.975,2.142h-36.142
			V589.383L457.235,589.383z"/>
	</g>
</g>
<g>
	<g>
		<path fill="#A3A3A3" d="M257.907,610.029c0,7.155-2.518,10.266-4.895,10.266c-2.662,0-4.714-3.831-4.714-9.939
			c0-6.468,2.153-10.262,4.876-10.262C255.994,600.093,257.907,604.125,257.907,610.029z M250.105,610.233
			c0,4.235,1.238,7.424,2.986,7.424c1.707,0,2.986-3.148,2.986-7.505c0-3.274-0.832-7.422-2.944-7.422
			C251.019,602.73,250.105,606.561,250.105,610.233z"/>
	</g>
	<g>
		<path fill="#A3A3A3" d="M260.163,605.759c0-1.996-0.02-3.634-0.08-5.227h1.563l0.082,3.112h0.061
			c0.547-1.836,1.459-3.552,3.086-3.552c1.34,0,2.358,1.599,2.782,3.872h0.042c0.305-1.08,0.69-1.917,1.099-2.518
			c0.588-0.878,1.237-1.354,2.174-1.354c1.3,0,3.226,1.681,3.226,8.38v11.384h-1.743v-10.936c0-3.719-0.691-5.951-2.133-5.951
			c-1.016,0-1.811,1.474-2.115,3.194c-0.083,0.476-0.142,1.111-0.142,1.754v11.94h-1.745V608.28c0-3.075-0.694-5.308-2.055-5.308
			c-1.116,0-1.931,1.753-2.215,3.509c-0.101,0.524-0.141,1.117-0.141,1.723v11.655h-1.749V605.76L260.163,605.759L260.163,605.759z"
			/>
	</g>
	<g>
		<path fill="#A3A3A3" d="M277.112,606.839c0-2.478-0.042-4.468-0.084-6.307h1.606l0.083,3.313h0.042
			c0.732-2.356,1.887-3.754,3.493-3.754c2.374,0,4.165,3.95,4.165,9.819c0,6.951-2.156,10.384-4.469,10.384
			c-1.303,0-2.437-1.115-3.03-3.034h-0.041v10.5h-1.765V606.839L277.112,606.839z M278.878,611.989c0,0.518,0.041,1.001,0.083,1.438
			c0.323,2.438,1.4,4.116,2.683,4.116c1.888,0,2.983-3.035,2.983-7.47c0-3.874-1.035-7.188-2.925-7.188
			c-1.217,0-2.357,1.718-2.7,4.354c-0.062,0.438-0.125,0.963-0.125,1.438L278.878,611.989L278.878,611.989z"/>
	</g>
	<g>
		<path fill="#A3A3A3" d="M296.9,614.584c0,2.003,0.021,3.757,0.084,5.271h-1.583l-0.104-3.154h-0.042
			c-0.467,1.556-1.501,3.594-3.251,3.594c-1.544,0-3.389-1.675-3.389-8.465v-11.297h1.784v10.697c0,3.67,0.574,6.154,2.199,6.154
			c1.196,0,2.031-1.64,2.355-3.194c0.104-0.522,0.163-1.158,0.163-1.799v-11.858h1.788v14.052H296.9z"/>
	</g>
	<g>
		<path fill="#A3A3A3" d="M302.025,594.978v5.553h2.558v2.673h-2.558v10.425c0,2.394,0.342,3.754,1.338,3.754
			c0.467,0,0.813-0.124,1.039-0.237l0.084,2.633c-0.35,0.277-0.896,0.479-1.588,0.479c-0.83,0-1.504-0.517-1.931-1.483
			c-0.507-1.036-0.689-2.752-0.689-5.026v-10.545h-1.525v-2.674h1.525v-4.632L302.025,594.978z"/>
	</g>
	<g>
		<path fill="#A3A3A3" d="M307.471,610.833c0.039,4.752,1.584,6.71,3.369,6.71c1.28,0,2.055-0.438,2.724-0.997l0.308,2.513
			c-0.634,0.558-1.708,1.2-3.273,1.2c-3.024,0-4.832-3.92-4.832-9.748c0-5.827,1.746-10.418,4.607-10.418
			c3.212,0,4.063,5.553,4.063,9.101c0,0.719-0.041,1.281-0.059,1.64H307.471L307.471,610.833L307.471,610.833z M312.713,608.312
			c0.019-2.232-0.467-5.706-2.481-5.706c-1.806,0-2.599,3.276-2.739,5.706H312.713z"/>
	</g>
	<g>
		<path fill="#A3A3A3" d="M316.652,606.561c0-2.275-0.019-4.229-0.079-6.028h1.563l0.063,3.79h0.081
			c0.445-2.59,1.522-4.229,2.721-4.229c0.204,0,0.348,0.041,0.508,0.12v3.313c-0.183-0.077-0.365-0.12-0.607-0.12
			c-1.259,0-2.155,1.879-2.399,4.512c-0.042,0.479-0.079,1.039-0.079,1.639v10.301h-1.771L316.652,606.561L316.652,606.561z"/>
	</g>
</g>
<g>
	<g>
		<path fill="#A3A3A3" d="M247.069,618.738c-0.65,0.636-1.949,1.277-3.616,1.277c-3.861,0-6.764-4.795-6.764-13.619
			c0-8.418,2.903-14.132,7.15-14.132c1.708,0,2.784,0.719,3.251,1.199l-0.428,2.829c-0.669-0.631-1.625-1.114-2.763-1.114
			c-3.21,0-5.341,4.028-5.341,11.098c0,6.588,1.93,10.823,5.259,10.823c1.077,0,2.174-0.441,2.885-1.123L247.069,618.738z"/>
	</g>
</g>
<g>
	<g>
		<path fill="#A3A3A3" d="M436.447,610.438c0.041,4.752,1.585,6.712,3.373,6.712c1.28,0,2.052-0.44,2.724-1.002l0.306,2.516
			c-0.629,0.56-1.708,1.201-3.27,1.201c-3.029,0-4.84-3.915-4.84-9.741c0-5.834,1.751-10.425,4.614-10.425
			c3.209,0,4.062,5.549,4.062,9.1c0,0.725-0.037,1.284-0.062,1.64H436.447L436.447,610.438z M441.69,607.927
			c0.021-2.241-0.47-5.717-2.479-5.717c-1.807,0-2.598,3.274-2.74,5.717H441.69z"/>
	</g>
	<g>
		<path fill="#A3A3A3" d="M445.633,606.167c0-2.274-0.021-4.234-0.083-6.028h1.567l0.057,3.791h0.085
			c0.444-2.598,1.523-4.231,2.724-4.231c0.201,0,0.343,0.037,0.508,0.118v3.316c-0.184-0.078-0.365-0.119-0.613-0.119
			c-1.261,0-2.151,1.877-2.397,4.51c-0.039,0.487-0.08,1.039-0.08,1.64v10.304h-1.767V606.167L445.633,606.167z"/>
	</g>
	<g>
		<path fill="#A3A3A3" d="M453.472,600.139l1.932,10.858c0.326,1.76,0.592,3.357,0.792,4.954h0.063
			c0.226-1.597,0.508-3.194,0.833-4.954l1.911-10.858h1.867l-3.858,19.327h-1.707l-3.738-19.327H453.472z"/>
	</g>
	<g>
		<path fill="#A3A3A3" d="M464.551,594.709c0.021,1.2-0.428,2.152-1.138,2.152c-0.631,0-1.077-0.952-1.077-2.152
			c0-1.239,0.468-2.197,1.116-2.197C464.123,592.512,464.551,593.468,464.551,594.709z M462.56,619.466v-19.327h1.786v19.327H462.56
			z"/>
	</g>
	<g>
		<path fill="#A3A3A3" d="M474.322,618.742c-0.467,0.481-1.504,1.123-2.822,1.123c-2.966,0-4.896-3.956-4.896-9.865
			c0-5.947,2.07-10.264,5.283-10.264c1.053,0,1.988,0.522,2.476,1.002l-0.406,2.714c-0.426-0.479-1.096-0.915-2.069-0.915
			c-2.255,0-3.476,3.275-3.476,7.302c0,4.474,1.462,7.229,3.412,7.229c1.018,0,1.688-0.517,2.196-0.956L474.322,618.742z"/>
	</g>
	<g>
		<path fill="#A3A3A3" d="M477.291,610.438c0.039,4.752,1.583,6.712,3.374,6.712c1.279,0,2.054-0.44,2.721-1.002l0.305,2.516
			c-0.629,0.56-1.704,1.201-3.271,1.201c-3.023,0-4.831-3.915-4.831-9.741c0-5.834,1.743-10.425,4.608-10.425
			c3.214,0,4.064,5.549,4.064,9.1c0,0.725-0.042,1.284-0.062,1.64H477.291L477.291,610.438z M482.53,607.927
			c0.021-2.241-0.466-5.717-2.476-5.717c-1.808,0-2.599,3.274-2.741,5.717H482.53z"/>
	</g>
	<g>
		<path fill="#A3A3A3" d="M486.231,615.869c0.526,0.682,1.466,1.395,2.359,1.395c1.299,0,1.907-1.272,1.907-2.87
			c0-1.675-0.507-2.595-1.828-3.557c-1.769-1.235-2.601-3.155-2.601-5.471c0-3.112,1.279-5.667,3.393-5.667
			c0.995,0,1.87,0.56,2.42,1.2l-0.45,2.553c-0.384-0.479-1.099-1.115-2.009-1.115c-1.057,0-1.648,1.193-1.648,2.637
			c0,1.593,0.592,2.312,1.873,3.273c1.705,1.276,2.577,2.951,2.577,5.821c0,3.397-1.342,5.797-3.675,5.797
			c-1.078,0-2.072-0.522-2.764-1.319L486.231,615.869z"/>
	</g>
</g>
<g>
	<g>
		<path fill="#A3A3A3" d="M424.135,615.527c0.792,0.956,1.95,1.758,3.167,1.758c1.809,0,2.864-1.877,2.864-4.593
			c0-2.511-0.733-3.955-2.58-5.345c-2.234-1.559-3.615-3.837-3.615-7.627c0-4.198,1.769-7.311,4.429-7.311
			c1.4,0,2.418,0.641,3.025,1.318l-0.483,2.833c-0.448-0.476-1.365-1.276-2.604-1.276c-1.868,0-2.577,2.195-2.577,4.031
			c0,2.52,0.832,3.756,2.72,5.193c2.32,1.758,3.494,3.957,3.494,7.906c0,4.154-1.566,7.746-4.793,7.746
			c-1.321,0-2.763-0.76-3.494-1.717L424.135,615.527z"/>
	</g>
</g>
<g>
	<g>
		<path fill="#A3A3A3" d="M358.833,614.434c0,1.997,0.02,3.757,0.079,5.271h-1.582l-0.101-3.154h-0.041
			c-0.466,1.556-1.501,3.59-3.249,3.59c-1.546,0-3.394-1.677-3.394-8.461v-11.303h1.786v10.704c0,3.672,0.569,6.143,2.195,6.143
			c1.2,0,2.032-1.629,2.358-3.186c0.103-0.522,0.162-1.163,0.162-1.799v-11.862h1.789v14.058H358.833L358.833,614.434z"/>
	</g>
	<g>
		<path fill="#A3A3A3" d="M361.8,606.687c0-2.474-0.041-4.475-0.078-6.311h1.604l0.082,3.321h0.042
			c0.732-2.359,1.888-3.759,3.493-3.759c2.375,0,4.165,3.956,4.165,9.825c0,6.948-2.153,10.378-4.467,10.378
			c-1.304,0-2.438-1.113-3.03-3.031h-0.042v10.503h-1.767L361.8,606.687L361.8,606.687z M363.567,611.84
			c0,0.518,0.041,1,0.083,1.436c0.324,2.435,1.4,4.111,2.681,4.111c1.892,0,2.984-3.032,2.984-7.462c0-3.874-1.034-7.19-2.926-7.19
			c-1.216,0-2.354,1.718-2.699,4.354c-0.059,0.434-0.125,0.958-0.125,1.439L363.567,611.84L363.567,611.84z"/>
	</g>
	<g>
		<path fill="#A3A3A3" d="M373.363,606.687c0-2.474-0.042-4.475-0.081-6.311h1.604l0.085,3.321h0.041
			c0.727-2.359,1.891-3.759,3.492-3.759c2.377,0,4.165,3.956,4.165,9.825c0,6.948-2.153,10.378-4.47,10.378
			c-1.297,0-2.438-1.113-3.027-3.031h-0.038v10.503h-1.771L373.363,606.687L373.363,606.687z M375.133,611.84
			c0,0.518,0.038,1,0.078,1.436c0.325,2.435,1.404,4.111,2.683,4.111c1.892,0,2.987-3.032,2.987-7.462
			c0-3.874-1.038-7.19-2.927-7.19c-1.219,0-2.355,1.718-2.701,4.354c-0.057,0.434-0.119,0.958-0.119,1.439L375.133,611.84
			L375.133,611.84z"/>
	</g>
	<g>
		<path fill="#A3A3A3" d="M393.821,609.882c0,7.146-2.518,10.257-4.895,10.257c-2.661,0-4.713-3.832-4.713-9.938
			c0-6.469,2.152-10.263,4.877-10.263C391.913,599.938,393.821,603.974,393.821,609.882z M386.022,610.084
			c0,4.229,1.24,7.422,2.984,7.422c1.706,0,2.988-3.153,2.988-7.506c0-3.273-0.832-7.427-2.946-7.427
			C386.939,602.574,386.022,606.413,386.022,610.084z"/>
	</g>
	<g>
		<path fill="#A3A3A3" d="M396.081,606.413c0-2.282-0.021-4.242-0.079-6.036h1.563l0.063,3.796h0.081
			c0.447-2.596,1.522-4.234,2.722-4.234c0.204,0,0.347,0.04,0.509,0.125v3.314c-0.187-0.083-0.365-0.126-0.612-0.126
			c-1.259,0-2.152,1.879-2.396,4.517c-0.042,0.479-0.08,1.038-0.08,1.638v10.301h-1.769V606.413L396.081,606.413z"/>
	</g>
	<g>
		<path fill="#A3A3A3" d="M405.364,594.828v5.549h2.562v2.679h-2.562v10.42c0,2.396,0.348,3.748,1.343,3.748
			c0.466,0,0.812-0.115,1.037-0.237l0.078,2.634c-0.343,0.28-0.89,0.481-1.581,0.481c-0.834,0-1.5-0.515-1.93-1.478
			c-0.508-1.034-0.692-2.752-0.692-5.026v-10.544h-1.521v-2.679h1.521v-4.631L405.364,594.828z"/>
	</g>
</g>
<g>
	<g>
		<path fill="#A3A3A3" d="M339.643,615.782c0.788,0.956,1.949,1.753,3.17,1.753c1.807,0,2.862-1.872,2.862-4.586
			c0-2.52-0.729-3.957-2.579-5.353c-2.234-1.556-3.615-3.833-3.615-7.627c0-4.194,1.767-7.311,4.427-7.311
			c1.401,0,2.417,0.642,3.029,1.317l-0.49,2.84c-0.445-0.479-1.358-1.276-2.599-1.276c-1.869,0-2.58,2.197-2.58,4.026
			c0,2.518,0.832,3.757,2.722,5.196c2.316,1.755,3.493,3.951,3.493,7.901c0,4.152-1.563,7.746-4.794,7.746
			c-1.316,0-2.761-0.756-3.492-1.718L339.643,615.782z"/>
	</g>
</g>
<rect x="211.735" y="52.445" fill="#DB4D4D" width="46" height="46"/>
<rect x="47.139" y="52.445" fill="#3A3A3A" width="46" height="46"/>
<rect x="101.63" y="52.445" fill="#707070" width="46" height="46"/>
<rect x="155.92" y="52.445" fill="#A3A3A3" width="46" height="46"/>
<rect x="211.735" y="111.445" fill="#7AB557" width="46" height="46"/>
<rect x="47.139" y="111.445" fill="#3A3A3A" width="46" height="46"/>
<rect x="101.63" y="111.445" fill="#707070" width="46" height="46"/>
<rect x="155.92" y="111.445" fill="#A3A3A3" width="46" height="46"/>
<rect x="212.218" y="168.445" fill="#E98D09" width="46" height="46"/>
<rect x="47.622" y="168.445" fill="#3A3A3A" width="46" height="46"/>
<rect x="102.112" y="168.445" fill="#707070" width="46" height="46"/>
<rect x="156.402" y="168.445" fill="#A3A3A3" width="46" height="46"/>
<g>
	<path fill="#3A3A3A" d="M32.911,798.599H8.304l59.252-162.786h21.625l59.253,162.786h-13.194L84.073,657.085L32.911,798.599z
		 M8.304,798.599c0,0,28.705-62.877,108.49-90.405c79.786-27.529,201.727-30.31,257.502-32.69
		c80.576-3.44,148.503,16.713,148.503,16.713s-131.42-16.273-282.16,13.396c-74.464,14.658-135.813,17.361-207.728,92.987H8.304z"/>
</g>
<g>
	<g>
		<path fill="#3A3A3A" d="M139.844,638.231c0-1.526,0.915-2.611,2.514-2.611h42.491c29.696,0,46.604,21.103,46.604,39.165
			c0,13.05-0.227,33.067-23.301,39.809v0.436c14.391,5.006,23.987,19.582,23.987,36.552c0,11.092-0.23,47.21-47.519,47.21h-42.489
			c-1.601,0-2.286-1.091-2.286-2.389V638.231L139.844,638.231z M180.737,696.972c0,0.869,0.684,1.521,1.601,1.521
			c3.196,0,6.626-1.954,6.626-6.308v-18.709c0-3.913-3.885-5.656-6.626-5.656c-0.917,0-1.601,0.436-1.601,1.303V696.972z
			 M180.737,764.634c0,0.873,0.457,1.524,1.601,1.524c3.656,0,6.854-2.611,6.854-6.308v-22.845c0-3.697-3.427-5.875-7.083-5.875
			c-0.915,0-1.371,0.653-1.371,1.737V764.634L180.737,764.634z"/>
	</g>
</g>
<g>
	<g>
		<path fill="#D10000" d="M236.79,638.741c0-1.154,1.062-2.147,2.335-2.147h35.926c1.491,0,2.553,0.66,2.98,1.983l12.754,37.146
			c0.425,1.322,1.063,1.979,1.487,1.979c0.639,0,1.276-0.655,1.276-2.146v-36.812c0-1.156,1.064-2.149,2.549-2.149h31.89
			c1.701,0,2.766,1.158,2.766,2.314v119.365c0,1.154-0.85,2.143-2.339,2.143h-39.754c-0.852,0-2.128-0.657-2.339-1.65l-9.354-29.716
			c-0.425-1.653-1.275-2.313-1.914-2.313c-0.636,0-1.063,0.659-1.063,2.313v29.226c0,1.152-1.276,2.141-2.764,2.141h-32.313
			c-1.276,0-2.125-0.988-2.125-2.306L236.79,638.741L236.79,638.741z"/>
	</g>
	<g>
		<path fill="#D10000" d="M339.251,638.741c0-0.991,1.276-2.147,2.766-2.147h75.469c1.272,0,2.124,0.827,2.124,1.816v29.714
			c0,0.994-1.063,1.656-2.335,1.656h-35.505c-0.849,0-1.491,0.495-1.491,1.152v9.245c0,0.66,0.855,1.158,1.491,1.158h16.794
			c0.851,0,1.491,0.495,1.491,1.157v30.047c0,0.823-0.852,1.485-1.703,1.485h-17.218c-0.854,0-1.491,0.496-1.491,1.319v9.741
			c0,0.657,0.636,1.152,1.276,1.152h36.776c1.489,0,2.339,0.829,2.339,1.65v30.709c0,0.993-1.063,1.814-2.339,1.814H341.59
			c-1.274,0-2.339-0.987-2.339-2.141V638.741L339.251,638.741z"/>
	</g>
	<g>
		<path fill="#D10000" d="M457.234,760.414c-1.489,0-2.973-0.988-2.973-2.305v-86.182c0-1.153-1.276-1.981-2.77-1.981h-21.256
			c-1.275,0-2.761-1.324-2.761-2.319v-29.383c0-0.99,0.634-1.65,1.909-1.65h90.986c1.491,0,2.768,0.66,2.768,1.983v29.052
			c0,1.324-1.276,2.317-2.979,2.317h-21.256c-1.489,0-2.554,0.828-2.554,2.313v86.015c0,1.154-1.274,2.143-2.974,2.143h-36.142
			L457.234,760.414L457.234,760.414z"/>
	</g>
</g>
<g>
	<g>
		<path fill="#3A3A3A" d="M257.907,781.059c0,7.154-2.519,10.266-4.896,10.266c-2.662,0-4.714-3.832-4.714-9.939
			c0-6.468,2.153-10.262,4.876-10.262C255.994,771.124,257.907,775.155,257.907,781.059z M250.104,781.263
			c0,4.234,1.238,7.423,2.986,7.423c1.707,0,2.986-3.147,2.986-7.505c0-3.273-0.832-7.422-2.944-7.422
			C251.019,773.759,250.104,777.591,250.104,781.263z"/>
	</g>
	<g>
		<path fill="#3A3A3A" d="M260.162,776.789c0-1.995-0.02-3.633-0.08-5.227h1.563l0.082,3.113h0.061
			c0.547-1.836,1.459-3.552,3.087-3.552c1.34,0,2.358,1.599,2.781,3.872h0.042c0.305-1.08,0.69-1.918,1.099-2.518
			c0.588-0.879,1.236-1.354,2.174-1.354c1.3,0,3.226,1.68,3.226,8.38v11.384h-1.744v-10.937c0-3.718-0.69-5.95-2.133-5.95
			c-1.015,0-1.81,1.473-2.114,3.193c-0.083,0.477-0.142,1.112-0.142,1.755v11.94h-1.745V779.31c0-3.075-0.694-5.308-2.054-5.308
			c-1.117,0-1.932,1.752-2.215,3.509c-0.101,0.524-0.141,1.117-0.141,1.723v11.655h-1.748v-14.099h0.002V776.789z"/>
	</g>
	<g>
		<path fill="#3A3A3A" d="M277.111,777.869c0-2.477-0.041-4.467-0.083-6.307h1.606l0.083,3.313h0.041
			c0.733-2.356,1.888-3.753,3.493-3.753c2.375,0,4.166,3.95,4.166,9.819c0,6.95-2.156,10.384-4.469,10.384
			c-1.303,0-2.438-1.115-3.031-3.035h-0.041v10.501h-1.765V777.869L277.111,777.869z M278.878,783.019c0,0.517,0.041,1,0.083,1.438
			c0.322,2.438,1.4,4.116,2.683,4.116c1.887,0,2.983-3.034,2.983-7.47c0-3.873-1.036-7.188-2.926-7.188
			c-1.216,0-2.356,1.717-2.7,4.354c-0.062,0.438-0.124,0.963-0.124,1.438L278.878,783.019L278.878,783.019z"/>
	</g>
	<g>
		<path fill="#3A3A3A" d="M296.899,785.615c0,2.002,0.021,3.757,0.085,5.271H295.4l-0.103-3.155h-0.042
			c-0.466,1.557-1.501,3.595-3.25,3.595c-1.544,0-3.389-1.675-3.389-8.465v-11.298h1.783v10.697c0,3.671,0.575,6.154,2.199,6.154
			c1.197,0,2.031-1.64,2.355-3.193c0.104-0.522,0.163-1.158,0.163-1.799v-11.859h1.789v14.053H296.899z"/>
	</g>
	<g>
		<path fill="#3A3A3A" d="M302.025,766.008v5.553h2.557v2.673h-2.557v10.425c0,2.394,0.342,3.753,1.338,3.753
			c0.466,0,0.812-0.124,1.038-0.237l0.085,2.633c-0.351,0.278-0.896,0.48-1.588,0.48c-0.831,0-1.504-0.518-1.931-1.484
			c-0.508-1.035-0.69-2.751-0.69-5.026v-10.545h-1.524v-2.673h1.524v-4.632L302.025,766.008z"/>
	</g>
	<g>
		<path fill="#3A3A3A" d="M307.47,781.863c0.039,4.752,1.585,6.71,3.37,6.71c1.279,0,2.055-0.437,2.723-0.996l0.308,2.512
			c-0.634,0.558-1.708,1.2-3.273,1.2c-3.023,0-4.831-3.919-4.831-9.748c0-5.826,1.745-10.417,4.606-10.417
			c3.213,0,4.064,5.552,4.064,9.1c0,0.719-0.042,1.282-0.06,1.64h-6.905l0,0H307.47z M312.712,779.342
			c0.02-2.233-0.466-5.707-2.48-5.707c-1.806,0-2.6,3.277-2.739,5.707H312.712z"/>
	</g>
	<g>
		<path fill="#3A3A3A" d="M316.651,777.591c0-2.275-0.018-4.23-0.078-6.029h1.563l0.063,3.791h0.081
			c0.444-2.59,1.521-4.229,2.72-4.229c0.204,0,0.349,0.04,0.508,0.12v3.313c-0.182-0.078-0.364-0.12-0.606-0.12
			c-1.259,0-2.155,1.878-2.399,4.511c-0.042,0.48-0.08,1.039-0.08,1.64v10.301h-1.771L316.651,777.591L316.651,777.591z"/>
	</g>
</g>
<g>
	<g>
		<path fill="#3A3A3A" d="M247.068,789.768c-0.65,0.636-1.949,1.276-3.616,1.276c-3.861,0-6.764-4.794-6.764-13.618
			c0-8.419,2.903-14.132,7.15-14.132c1.708,0,2.784,0.719,3.251,1.198l-0.428,2.829c-0.669-0.63-1.625-1.113-2.763-1.113
			c-3.209,0-5.341,4.027-5.341,11.098c0,6.588,1.93,10.822,5.259,10.822c1.077,0,2.174-0.44,2.885-1.122L247.068,789.768z"/>
	</g>
</g>
<g>
	<g>
		<path fill="#3A3A3A" d="M436.447,781.468c0.04,4.752,1.584,6.712,3.372,6.712c1.28,0,2.053-0.441,2.725-1.002l0.305,2.516
			c-0.628,0.56-1.708,1.2-3.27,1.2c-3.029,0-4.839-3.914-4.839-9.741c0-5.834,1.751-10.425,4.614-10.425
			c3.208,0,4.061,5.549,4.061,9.101c0,0.725-0.037,1.284-0.062,1.64H436.447L436.447,781.468z M441.689,778.958
			c0.021-2.241-0.47-5.717-2.478-5.717c-1.808,0-2.599,3.273-2.74,5.717H441.689z"/>
	</g>
	<g>
		<path fill="#3A3A3A" d="M445.632,777.198c0-2.275-0.021-4.235-0.083-6.028h1.568l0.057,3.79h0.084
			c0.445-2.597,1.524-4.231,2.725-4.231c0.2,0,0.342,0.038,0.508,0.119v3.316c-0.184-0.078-0.366-0.119-0.614-0.119
			c-1.261,0-2.151,1.877-2.397,4.51c-0.039,0.486-0.079,1.039-0.079,1.64v10.304h-1.768V777.198L445.632,777.198z"/>
	</g>
	<g>
		<path fill="#3A3A3A" d="M453.471,771.169l1.932,10.858c0.327,1.76,0.593,3.356,0.793,4.953h0.063
			c0.225-1.597,0.508-3.193,0.832-4.953l1.912-10.858h1.866l-3.858,19.326h-1.706l-3.738-19.326H453.471z"/>
	</g>
	<g>
		<path fill="#3A3A3A" d="M464.55,765.739c0.021,1.201-0.427,2.153-1.137,2.153c-0.632,0-1.078-0.952-1.078-2.153
			c0-1.239,0.469-2.196,1.117-2.196C464.123,763.542,464.55,764.499,464.55,765.739z M462.559,790.496v-19.326h1.786v19.326H462.559
			z"/>
	</g>
	<g>
		<path fill="#3A3A3A" d="M474.321,789.772c-0.466,0.481-1.504,1.122-2.822,1.122c-2.966,0-4.896-3.955-4.896-9.865
			c0-5.946,2.071-10.263,5.283-10.263c1.054,0,1.988,0.521,2.477,1.002l-0.407,2.714c-0.425-0.479-1.096-0.915-2.069-0.915
			c-2.254,0-3.476,3.275-3.476,7.301c0,4.475,1.462,7.229,3.413,7.229c1.017,0,1.688-0.518,2.195-0.956L474.321,789.772z"/>
	</g>
	<g>
		<path fill="#3A3A3A" d="M477.29,781.468c0.039,4.752,1.583,6.712,3.375,6.712c1.279,0,2.054-0.441,2.721-1.002l0.305,2.516
			c-0.629,0.56-1.705,1.2-3.271,1.2c-3.024,0-4.832-3.914-4.832-9.741c0-5.834,1.744-10.425,4.608-10.425
			c3.215,0,4.065,5.549,4.065,9.101c0,0.725-0.043,1.284-0.063,1.64H477.29L477.29,781.468z M482.53,778.958
			c0.02-2.241-0.467-5.717-2.477-5.717c-1.808,0-2.599,3.273-2.74,5.717H482.53z"/>
	</g>
	<g>
		<path fill="#3A3A3A" d="M486.231,786.898c0.525,0.682,1.466,1.396,2.359,1.396c1.298,0,1.907-1.273,1.907-2.87
			c0-1.675-0.507-2.596-1.829-3.557c-1.769-1.236-2.601-3.155-2.601-5.471c0-3.112,1.279-5.668,3.394-5.668
			c0.995,0,1.87,0.56,2.419,1.201l-0.45,2.553c-0.384-0.479-1.098-1.115-2.008-1.115c-1.057,0-1.648,1.193-1.648,2.636
			c0,1.594,0.592,2.313,1.872,3.273c1.706,1.277,2.577,2.952,2.577,5.821c0,3.398-1.342,5.797-3.675,5.797
			c-1.077,0-2.071-0.522-2.764-1.319L486.231,786.898z"/>
	</g>
</g>
<g>
	<g>
		<path fill="#3A3A3A" d="M424.135,786.556c0.792,0.956,1.949,1.759,3.166,1.759c1.81,0,2.864-1.877,2.864-4.593
			c0-2.511-0.732-3.955-2.579-5.346c-2.234-1.558-3.615-3.836-3.615-7.627c0-4.197,1.769-7.311,4.428-7.311
			c1.4,0,2.418,0.642,3.025,1.319l-0.483,2.833c-0.447-0.477-1.365-1.276-2.603-1.276c-1.869,0-2.577,2.195-2.577,4.031
			c0,2.52,0.832,3.755,2.719,5.192c2.321,1.759,3.495,3.957,3.495,7.907c0,4.153-1.566,7.746-4.793,7.746
			c-1.322,0-2.764-0.76-3.494-1.718L424.135,786.556z"/>
	</g>
</g>
<g>
	<g>
		<path fill="#3A3A3A" d="M358.833,785.464c0,1.997,0.02,3.757,0.079,5.271h-1.583l-0.101-3.155h-0.041
			c-0.465,1.557-1.501,3.591-3.248,3.591c-1.546,0-3.395-1.677-3.395-8.461v-11.303h1.786v10.704c0,3.672,0.57,6.142,2.196,6.142
			c1.2,0,2.032-1.629,2.357-3.185c0.104-0.522,0.163-1.163,0.163-1.799v-11.862h1.788v14.058H358.833L358.833,785.464z"/>
	</g>
	<g>
		<path fill="#3A3A3A" d="M361.8,777.716c0-2.473-0.041-4.474-0.079-6.31h1.604l0.083,3.321h0.041
			c0.733-2.36,1.889-3.759,3.493-3.759c2.376,0,4.166,3.955,4.166,9.824c0,6.949-2.154,10.379-4.467,10.379
			c-1.304,0-2.438-1.114-3.031-3.031h-0.041v10.503h-1.767L361.8,777.716L361.8,777.716z M363.567,782.871
			c0,0.517,0.04,1,0.083,1.436c0.324,2.435,1.4,4.111,2.681,4.111c1.891,0,2.984-3.033,2.984-7.463c0-3.874-1.035-7.189-2.927-7.189
			c-1.216,0-2.353,1.717-2.699,4.354c-0.059,0.434-0.124,0.958-0.124,1.439L363.567,782.871L363.567,782.871z"/>
	</g>
	<g>
		<path fill="#3A3A3A" d="M373.363,777.716c0-2.473-0.043-4.474-0.082-6.31h1.604l0.085,3.321h0.042
			c0.727-2.36,1.89-3.759,3.492-3.759c2.377,0,4.165,3.955,4.165,9.824c0,6.949-2.154,10.379-4.47,10.379
			c-1.298,0-2.438-1.114-3.027-3.031h-0.039v10.503h-1.77L373.363,777.716L373.363,777.716z M375.132,782.871
			c0,0.517,0.039,1,0.078,1.436c0.325,2.435,1.405,4.111,2.684,4.111c1.891,0,2.987-3.033,2.987-7.463
			c0-3.874-1.038-7.189-2.927-7.189c-1.219,0-2.355,1.717-2.702,4.354c-0.057,0.434-0.118,0.958-0.118,1.439L375.132,782.871
			L375.132,782.871z"/>
	</g>
	<g>
		<path fill="#3A3A3A" d="M393.821,780.913c0,7.146-2.518,10.256-4.896,10.256c-2.661,0-4.712-3.831-4.712-9.938
			c0-6.47,2.151-10.264,4.876-10.264C391.912,770.967,393.821,775.004,393.821,780.913z M386.021,781.114
			c0,4.229,1.241,7.422,2.985,7.422c1.705,0,2.988-3.153,2.988-7.505c0-3.273-0.832-7.427-2.947-7.427
			C386.939,773.604,386.021,777.442,386.021,781.114z"/>
	</g>
	<g>
		<path fill="#3A3A3A" d="M396.08,777.442c0-2.282-0.02-4.242-0.078-6.035h1.562l0.063,3.796h0.081
			c0.448-2.596,1.522-4.235,2.723-4.235c0.204,0,0.346,0.041,0.509,0.126v3.314c-0.187-0.083-0.365-0.126-0.613-0.126
			c-1.259,0-2.152,1.879-2.396,4.517c-0.042,0.478-0.081,1.037-0.081,1.638v10.301h-1.769V777.442L396.08,777.442z"/>
	</g>
	<g>
		<path fill="#3A3A3A" d="M405.364,765.858v5.549h2.561v2.679h-2.561v10.419c0,2.397,0.347,3.748,1.342,3.748
			c0.466,0,0.813-0.115,1.038-0.237l0.078,2.635c-0.344,0.279-0.89,0.481-1.581,0.481c-0.834,0-1.5-0.515-1.931-1.479
			c-0.508-1.034-0.691-2.751-0.691-5.026v-10.543h-1.521v-2.679h1.521v-4.632L405.364,765.858z"/>
	</g>
</g>
<g>
	<g>
		<path fill="#3A3A3A" d="M339.642,786.811c0.789,0.956,1.949,1.753,3.171,1.753c1.806,0,2.861-1.871,2.861-4.585
			c0-2.52-0.729-3.957-2.578-5.353c-2.234-1.557-3.615-3.833-3.615-7.627c0-4.194,1.767-7.311,4.426-7.311
			c1.402,0,2.417,0.641,3.029,1.317l-0.49,2.84c-0.444-0.479-1.357-1.276-2.599-1.276c-1.868,0-2.58,2.197-2.58,4.025
			c0,2.519,0.832,3.758,2.722,5.197c2.317,1.754,3.493,3.951,3.493,7.901c0,4.151-1.563,7.746-4.793,7.746
			c-1.317,0-2.762-0.757-3.493-1.718L339.642,786.811z"/>
	</g>
</g>
<rect x="211.7" y="225.445" fill="#098FC7" width="46" height="46"/>
<rect x="47.104" y="225.445" fill="#3A3A3A" width="46" height="46"/>
<rect x="101.594" y="225.445" fill="#707070" width="46" height="46"/>
<rect x="155.885" y="225.445" fill="#A3A3A3" width="46" height="46"/>
</svg>
